<svg xmlns="http://www.w3.org/2000/svg" xmlns:xlink="http://www.w3.org/1999/xlink" width="150" zoomAndPan="magnify" viewBox="0 0 112.5 33.749998" height="45" preserveAspectRatio="xMidYMid meet" version="1.2"><defs><clipPath id="76117c0359"><path d="M 0.164062 16.660156 L 22.5 16.660156 L 22.5 27.453125 L 0.164062 27.453125 Z M 0.164062 16.660156 "/></clipPath><clipPath id="5466ab1b38"><path d="M 7 5.761719 L 16 5.761719 L 16 18 L 7 18 Z M 7 5.761719 "/></clipPath></defs><g id="7bd77b4ccc"><path style=" stroke:none;fill-rule:nonzero;fill:#0f0e0c;fill-opacity:1;" d="M 6.460938 25.996094 L 5.179688 25.996094 C 4.40625 25.996094 2.253906 24.722656 1.390625 24.058594 C 1.285156 23.980469 1.265625 23.828125 1.34375 23.722656 C 1.425781 23.617188 1.574219 23.597656 1.679688 23.679688 C 2.582031 24.371094 4.609375 25.515625 5.179688 25.515625 L 6.460938 25.515625 C 6.59375 25.515625 6.703125 25.625 6.703125 25.757812 C 6.703125 25.890625 6.59375 25.996094 6.460938 25.996094 "/><path style=" stroke:none;fill-rule:nonzero;fill:#0f0e0c;fill-opacity:1;" d="M 2.144531 24.535156 C 2.109375 24.535156 2.078125 24.53125 2.046875 24.515625 C 1.925781 24.464844 1.871094 24.320312 1.921875 24.199219 L 4.164062 19.046875 C 4.21875 18.925781 4.359375 18.871094 4.480469 18.921875 C 4.601562 18.976562 4.660156 19.117188 4.605469 19.238281 L 2.363281 24.390625 C 2.324219 24.480469 2.234375 24.535156 2.144531 24.535156 "/><path style=" stroke:none;fill-rule:nonzero;fill:#0f0e0c;fill-opacity:1;" d="M 4.15625 25.667969 C 4.125 25.667969 4.089844 25.660156 4.058594 25.648438 C 3.9375 25.59375 3.882812 25.453125 3.933594 25.332031 L 5.453125 21.84375 C 5.507812 21.722656 5.648438 21.667969 5.769531 21.71875 C 5.890625 21.773438 5.945312 21.914062 5.894531 22.035156 L 4.375 25.523438 C 4.335938 25.613281 4.246094 25.667969 4.15625 25.667969 "/><path style=" stroke:none;fill-rule:nonzero;fill:#0f0e0c;fill-opacity:1;" d="M 7.292969 27.234375 C 7.160156 27.234375 7.054688 27.128906 7.054688 27 C 6.996094 22.226562 5.601562 18.941406 5.171875 18.046875 C 5.117188 17.925781 5.167969 17.785156 5.285156 17.726562 C 5.40625 17.671875 5.550781 17.722656 5.605469 17.839844 C 6.042969 18.757812 7.476562 22.125 7.53125 26.992188 C 7.535156 27.125 7.429688 27.234375 7.296875 27.234375 C 7.296875 27.234375 7.292969 27.234375 7.292969 27.234375 "/><path style=" stroke:none;fill-rule:nonzero;fill:#0f0e0c;fill-opacity:1;" d="M 9.03125 27.234375 C 8.898438 27.234375 8.789062 27.128906 8.789062 26.996094 L 8.789062 21.941406 C 8.789062 21.808594 8.898438 21.699219 9.03125 21.699219 C 9.164062 21.699219 9.269531 21.808594 9.269531 21.941406 L 9.269531 26.996094 C 9.269531 27.128906 9.164062 27.234375 9.03125 27.234375 "/><path style=" stroke:none;fill-rule:nonzero;fill:#0f0e0c;fill-opacity:1;" d="M 17.484375 25.996094 L 16.203125 25.996094 C 16.070312 25.996094 15.960938 25.890625 15.960938 25.757812 C 15.960938 25.625 16.070312 25.515625 16.203125 25.515625 L 17.484375 25.515625 C 18.054688 25.515625 20.082031 24.371094 20.984375 23.679688 C 21.089844 23.597656 21.238281 23.617188 21.320312 23.722656 C 21.398438 23.828125 21.378906 23.980469 21.277344 24.058594 C 20.410156 24.722656 18.257812 25.996094 17.484375 25.996094 "/><path style=" stroke:none;fill-rule:nonzero;fill:#0f0e0c;fill-opacity:1;" d="M 20.519531 24.535156 C 20.429688 24.535156 20.339844 24.480469 20.300781 24.390625 L 18.058594 19.238281 C 18.003906 19.117188 18.0625 18.976562 18.183594 18.921875 C 18.304688 18.871094 18.445312 18.925781 18.5 19.046875 L 20.742188 24.199219 C 20.792969 24.320312 20.738281 24.464844 20.617188 24.515625 C 20.585938 24.53125 20.554688 24.535156 20.519531 24.535156 "/><path style=" stroke:none;fill-rule:nonzero;fill:#0f0e0c;fill-opacity:1;" d="M 18.507812 25.667969 C 18.417969 25.667969 18.328125 25.613281 18.289062 25.523438 L 16.769531 22.035156 C 16.71875 21.914062 16.773438 21.773438 16.894531 21.71875 C 17.015625 21.667969 17.15625 21.722656 17.210938 21.84375 L 18.730469 25.332031 C 18.78125 25.453125 18.726562 25.59375 18.605469 25.648438 C 18.574219 25.660156 18.539062 25.667969 18.507812 25.667969 "/><path style=" stroke:none;fill-rule:nonzero;fill:#0f0e0c;fill-opacity:1;" d="M 15.371094 27.234375 C 15.234375 27.234375 15.128906 27.125 15.132812 26.992188 C 15.1875 22.125 16.621094 18.757812 17.058594 17.839844 C 17.113281 17.722656 17.257812 17.671875 17.378906 17.726562 C 17.496094 17.785156 17.546875 17.925781 17.492188 18.046875 C 17.0625 18.941406 15.667969 22.226562 15.609375 27 C 15.609375 27.128906 15.503906 27.234375 15.371094 27.234375 "/><path style=" stroke:none;fill-rule:nonzero;fill:#0f0e0c;fill-opacity:1;" d="M 13.632812 27.234375 C 13.5 27.234375 13.394531 27.128906 13.394531 26.996094 L 13.394531 21.941406 C 13.394531 21.808594 13.5 21.699219 13.632812 21.699219 C 13.765625 21.699219 13.875 21.808594 13.875 21.941406 L 13.875 26.996094 C 13.875 27.128906 13.765625 27.234375 13.632812 27.234375 "/><g clip-rule="nonzero" clip-path="url(#76117c0359)"><path style=" stroke:none;fill-rule:nonzero;fill:#0f0e0c;fill-opacity:1;" d="M 11.671875 20.320312 C 11.960938 20.6875 12.359375 20.910156 12.746094 21.132812 C 12.785156 21.152344 12.824219 21.175781 12.863281 21.199219 C 13.578125 19.285156 14.46875 17.957031 14.734375 17.585938 C 14.757812 17.550781 14.785156 17.527344 14.820312 17.507812 C 14.652344 17.480469 14.488281 17.449219 14.332031 17.414062 C 14.316406 17.410156 14.296875 17.40625 14.277344 17.398438 L 14.078125 17.300781 C 14.027344 17.277344 13.980469 17.253906 13.929688 17.230469 C 13.574219 18.027344 12.445312 19.660156 11.671875 20.320312 Z M 7.84375 17.507812 C 7.878906 17.527344 7.910156 17.550781 7.933594 17.585938 C 8.199219 17.957031 9.085938 19.285156 9.800781 21.199219 C 9.839844 21.175781 9.878906 21.152344 9.921875 21.132812 C 10.308594 20.910156 10.703125 20.6875 10.992188 20.320312 C 10.21875 19.660156 9.09375 18.027344 8.734375 17.230469 C 8.6875 17.253906 8.640625 17.277344 8.59375 17.296875 L 8.390625 17.394531 C 8.371094 17.40625 8.351562 17.410156 8.335938 17.414062 C 8.179688 17.445312 8.015625 17.476562 7.84375 17.507812 Z M 0.671875 25.179688 C 1.273438 25.722656 3.292969 26.972656 4.292969 26.972656 L 18.371094 26.972656 C 19.371094 26.972656 21.390625 25.722656 21.996094 25.179688 L 20.871094 20.316406 C 20.226562 18.433594 17.582031 17.984375 15.460938 17.621094 C 15.339844 17.597656 15.21875 17.578125 15.105469 17.558594 C 15.179688 17.640625 15.191406 17.765625 15.125 17.863281 C 14.855469 18.242188 13.925781 19.632812 13.21875 21.632812 C 13.195312 21.703125 13.140625 21.757812 13.070312 21.78125 C 13.003906 21.804688 12.925781 21.796875 12.863281 21.757812 C 12.75 21.6875 12.628906 21.617188 12.507812 21.546875 C 12.113281 21.324219 11.675781 21.074219 11.332031 20.660156 C 10.992188 21.074219 10.554688 21.324219 10.160156 21.546875 C 10.035156 21.617188 9.917969 21.6875 9.800781 21.757812 C 9.738281 21.796875 9.664062 21.804688 9.59375 21.78125 C 9.527344 21.757812 9.472656 21.703125 9.449219 21.632812 C 8.742188 19.632812 7.808594 18.242188 7.539062 17.863281 C 7.472656 17.765625 7.484375 17.640625 7.5625 17.558594 C 7.445312 17.578125 7.328125 17.597656 7.207031 17.621094 C 5.085938 17.984375 2.449219 18.433594 1.796875 20.308594 Z M 18.371094 27.453125 L 4.292969 27.453125 C 3.105469 27.453125 0.957031 26.085938 0.339844 25.527344 L 0.246094 25.441406 C 0.179688 25.382812 0.152344 25.296875 0.171875 25.210938 L 1.332031 20.1875 C 1.335938 20.179688 1.335938 20.171875 1.339844 20.164062 C 2.078125 18.011719 4.875 17.53125 7.125 17.148438 C 7.527344 17.078125 7.886719 17.015625 8.210938 16.949219 L 8.390625 16.863281 C 8.507812 16.808594 8.628906 16.75 8.761719 16.6875 C 8.828125 16.65625 8.902344 16.652344 8.96875 16.683594 C 9.035156 16.714844 9.085938 16.777344 9.101562 16.847656 C 9.210938 17.3125 10.53125 19.324219 11.332031 19.976562 C 12.132812 19.324219 13.453125 17.3125 13.5625 16.847656 C 13.582031 16.777344 13.628906 16.714844 13.695312 16.683594 C 13.761719 16.652344 13.835938 16.65625 13.902344 16.6875 C 14.039062 16.753906 14.160156 16.8125 14.28125 16.867188 L 14.457031 16.953125 C 14.785156 17.019531 15.148438 17.082031 15.53125 17.144531 C 17.789062 17.53125 20.589844 18.011719 21.324219 20.164062 C 21.328125 20.167969 21.335938 20.195312 21.335938 20.199219 L 22.492188 25.210938 C 22.511719 25.296875 22.484375 25.382812 22.421875 25.441406 L 22.328125 25.527344 C 21.710938 26.085938 19.5625 27.453125 18.371094 27.453125 "/></g><path style=" stroke:none;fill-rule:nonzero;fill:#0f0e0c;fill-opacity:1;" d="M 11.886719 15.414062 C 11.769531 15.414062 11.667969 15.328125 11.648438 15.210938 C 11.628906 15.082031 11.71875 14.957031 11.847656 14.9375 C 12.851562 14.773438 13.710938 13.996094 14.273438 12.75 C 14.324219 12.628906 14.46875 12.574219 14.589844 12.628906 C 14.710938 12.683594 14.761719 12.824219 14.710938 12.945312 C 14.082031 14.34375 13.089844 15.21875 11.925781 15.410156 C 11.910156 15.414062 11.898438 15.414062 11.886719 15.414062 "/><path style=" stroke:none;fill-rule:nonzero;fill:#0f0e0c;fill-opacity:1;" d="M 11.332031 27.1875 C 11.199219 27.1875 11.09375 27.082031 11.09375 26.949219 L 11.09375 21.546875 C 11.09375 21.414062 11.199219 21.304688 11.332031 21.304688 C 11.464844 21.304688 11.570312 21.414062 11.570312 21.546875 L 11.570312 26.949219 C 11.570312 27.082031 11.464844 27.1875 11.332031 27.1875 "/><path style=" stroke:none;fill-rule:nonzero;fill:#0f0e0c;fill-opacity:1;" d="M 14.339844 11.875 C 14.222656 11.875 14.121094 11.789062 14.101562 11.671875 C 14.082031 11.558594 14.042969 11.289062 14.023438 11.234375 C 13.980469 11.109375 13.945312 11.007812 13.910156 10.917969 C 13.785156 10.570312 13.671875 10.269531 13.824219 9.902344 C 13.925781 9.664062 13.71875 9.109375 13.46875 8.945312 C 13.164062 8.746094 12.773438 8.816406 12.324219 8.898438 C 12.007812 8.957031 11.671875 9.011719 11.324219 8.996094 C 11.296875 8.996094 11.253906 9 11.207031 9 C 10.902344 9 10.617188 8.949219 10.339844 8.898438 C 9.890625 8.816406 9.5 8.746094 9.195312 8.945312 C 8.949219 9.109375 8.742188 9.664062 8.839844 9.902344 C 8.992188 10.269531 8.882812 10.570312 8.753906 10.917969 C 8.722656 11.007812 8.683594 11.109375 8.648438 11.21875 C 8.632812 11.265625 8.609375 11.382812 8.578125 11.578125 C 8.558594 11.707031 8.433594 11.796875 8.304688 11.773438 C 8.171875 11.753906 8.085938 11.632812 8.105469 11.5 C 8.148438 11.230469 8.171875 11.121094 8.199219 11.050781 C 8.230469 10.953125 8.269531 10.847656 8.304688 10.753906 C 8.425781 10.425781 8.472656 10.273438 8.398438 10.085938 C 8.191406 9.589844 8.527344 8.808594 8.933594 8.542969 C 9.398438 8.242188 9.921875 8.335938 10.425781 8.425781 C 10.71875 8.480469 11.019531 8.527344 11.324219 8.515625 C 11.378906 8.519531 11.417969 8.519531 11.457031 8.519531 C 11.71875 8.519531 11.984375 8.472656 12.238281 8.425781 C 12.746094 8.335938 13.265625 8.242188 13.730469 8.542969 C 14.140625 8.808594 14.472656 9.589844 14.269531 10.085938 C 14.191406 10.273438 14.242188 10.425781 14.359375 10.753906 C 14.398438 10.851562 14.433594 10.953125 14.472656 11.070312 C 14.5 11.132812 14.523438 11.277344 14.574219 11.597656 C 14.597656 11.726562 14.507812 11.851562 14.375 11.871094 C 14.363281 11.871094 14.351562 11.875 14.339844 11.875 "/><g clip-rule="nonzero" clip-path="url(#5466ab1b38)"><path style=" stroke:none;fill-rule:nonzero;fill:#0f0e0c;fill-opacity:1;" d="M 11.199219 6.257812 C 10.542969 6.257812 9.929688 6.363281 9.511719 6.542969 C 8.03125 7.183594 7.421875 8.996094 7.667969 9.910156 C 7.765625 10.273438 7.867188 10.953125 7.976562 11.675781 C 8.082031 12.375 8.191406 13.097656 8.292969 13.5 C 8.613281 14.679688 9.433594 16.664062 11.332031 16.664062 C 13.234375 16.664062 14.050781 14.679688 14.371094 13.496094 C 14.472656 13.097656 14.582031 12.375 14.6875 11.675781 C 14.796875 10.953125 14.898438 10.273438 14.996094 9.910156 C 15.242188 8.996094 14.632812 7.183594 13.152344 6.542969 C 12.710938 6.351562 12.042969 6.246094 11.335938 6.261719 C 11.285156 6.261719 11.242188 6.257812 11.199219 6.257812 Z M 11.332031 17.140625 C 9.710938 17.140625 8.433594 15.859375 7.832031 13.621094 C 7.722656 13.191406 7.609375 12.457031 7.503906 11.75 C 7.402344 11.070312 7.296875 10.371094 7.203125 10.035156 C 6.910156 8.933594 7.585938 6.855469 9.320312 6.105469 C 9.824219 5.886719 10.5625 5.765625 11.335938 5.78125 C 11.375 5.78125 11.417969 5.78125 11.464844 5.78125 C 12.183594 5.78125 12.871094 5.898438 13.34375 6.105469 C 15.078125 6.855469 15.757812 8.933594 15.460938 10.035156 C 15.371094 10.371094 15.265625 11.070312 15.160156 11.75 C 15.054688 12.457031 14.941406 13.191406 14.835938 13.617188 C 14.230469 15.859375 12.953125 17.140625 11.332031 17.140625 "/></g><path style=" stroke:none;fill-rule:nonzero;fill:#0f0e0c;fill-opacity:1;" d="M 7.296875 13.082031 C 7.269531 13.082031 7.238281 13.078125 7.210938 13.066406 C 6.839844 12.921875 6.578125 12.519531 6.546875 12.042969 C 6.523438 11.683594 6.640625 11.332031 6.859375 11.101562 C 6.949219 11.007812 7.101562 11.003906 7.195312 11.09375 C 7.292969 11.183594 7.296875 11.335938 7.203125 11.433594 C 7.078125 11.566406 7.011719 11.78125 7.027344 12.007812 C 7.046875 12.292969 7.191406 12.542969 7.386719 12.621094 C 7.507812 12.667969 7.570312 12.808594 7.523438 12.929688 C 7.484375 13.023438 7.394531 13.082031 7.296875 13.082031 "/><path style=" stroke:none;fill-rule:nonzero;fill:#0f0e0c;fill-opacity:1;" d="M 15.367188 13.082031 C 15.269531 13.082031 15.179688 13.023438 15.144531 12.929688 C 15.09375 12.808594 15.15625 12.667969 15.28125 12.621094 C 15.472656 12.542969 15.621094 12.292969 15.640625 12.007812 C 15.65625 11.78125 15.585938 11.566406 15.460938 11.433594 C 15.371094 11.335938 15.371094 11.183594 15.46875 11.09375 C 15.566406 11.003906 15.714844 11.007812 15.808594 11.101562 C 16.027344 11.332031 16.140625 11.683594 16.117188 12.042969 C 16.085938 12.519531 15.824219 12.921875 15.453125 13.066406 C 15.425781 13.078125 15.394531 13.082031 15.367188 13.082031 "/><path style=" stroke:none;fill-rule:nonzero;fill:#0f0e0c;fill-opacity:1;" d="M 12.441406 15.210938 C 12.441406 15.5625 12.15625 15.847656 11.804688 15.847656 C 11.453125 15.847656 11.167969 15.5625 11.167969 15.210938 C 11.167969 14.859375 11.453125 14.574219 11.804688 14.574219 C 12.15625 14.574219 12.441406 14.859375 12.441406 15.210938 "/><path style="fill:none;stroke-width:5;stroke-linecap:butt;stroke-linejoin:miter;stroke:#0f0e0c;stroke-opacity:1;stroke-miterlimit:4;" d="M 0.00202487 2.502368 L 33.093765 2.502368 " transform="matrix(0,-0.742727,0.742727,0,26.407049,29.064004)"/><g style="fill:#0f0e0c;fill-opacity:1;"><g transform="translate(33.70654, 22.3026)"><path style="stroke:none" d="M 4.109375 -11.03125 L 5.4375 -13.09375 L 6.875 -13.09375 L 5.15625 -11.03125 Z M 0.1875 0 L 3.65625 -10.234375 L 5.609375 -10.234375 L 9.078125 0 L 7.75 0 L 6.875 -2.671875 L 2.390625 -2.671875 L 1.53125 0 Z M 2.765625 -3.78125 L 6.515625 -3.78125 L 4.796875 -9.046875 L 4.46875 -9.046875 Z M 2.765625 -3.78125 "/></g></g><g style="fill:#0f0e0c;fill-opacity:1;"><g transform="translate(42.966734, 22.3026)"><path style="stroke:none" d="M 1.203125 0 L 1.203125 -10.234375 L 6.8125 -10.234375 L 8.25 -8.78125 L 8.25 -5.515625 L 6.8125 -4.0625 L 6.765625 -4.0625 L 8.609375 0 L 7.203125 0 L 5.390625 -4.0625 L 2.46875 -4.0625 L 2.46875 0 Z M 2.46875 -5.1875 L 6.234375 -5.1875 L 6.984375 -5.9375 L 6.984375 -8.34375 L 6.234375 -9.109375 L 2.46875 -9.109375 Z M 2.46875 -5.1875 "/></g></g><g style="fill:#0f0e0c;fill-opacity:1;"><g transform="translate(52.365764, 22.3026)"><path style="stroke:none" d="M 1.203125 0 L 1.203125 -10.234375 L 6.703125 -10.234375 L 8.140625 -8.78125 L 8.140625 -6.375 L 7.5 -5.515625 L 8.6875 -4.3125 L 8.6875 -1.453125 L 7.21875 0 Z M 2.46875 -5.9375 L 6.296875 -5.9375 L 6.875 -6.734375 L 6.875 -8.34375 L 6.125 -9.125 L 2.46875 -9.109375 Z M 2.46875 -1.125 L 6.65625 -1.125 L 7.421875 -1.890625 L 7.421875 -3.984375 L 6.609375 -4.8125 L 2.46875 -4.8125 Z M 2.46875 -1.125 "/></g></g><g style="fill:#0f0e0c;fill-opacity:1;"><g transform="translate(61.945278, 22.3026)"><path style="stroke:none" d="M 0.859375 0 L 0.859375 -1.171875 L 2.109375 -1.171875 L 2.109375 -9.078125 L 0.859375 -9.078125 L 0.859375 -10.234375 L 4.625 -10.234375 L 4.625 -9.078125 L 3.375 -9.078125 L 3.375 -1.171875 L 4.625 -1.171875 L 4.625 0 Z M 0.859375 0 "/></g></g><g style="fill:#0f0e0c;fill-opacity:1;"><g transform="translate(67.4292, 22.3026)"><path style="stroke:none" d="M 3.21875 0 L 3.21875 -9.078125 L 0.1875 -9.078125 L 0.1875 -10.234375 L 7.53125 -10.234375 L 7.53125 -9.078125 L 4.484375 -9.078125 L 4.484375 0 Z M 3.21875 0 "/></g></g><g style="fill:#0f0e0c;fill-opacity:1;"><g transform="translate(75.134459, 22.3026)"><path style="stroke:none" d="M 1.203125 0 L 1.203125 -10.234375 L 6.8125 -10.234375 L 8.25 -8.78125 L 8.25 -5.515625 L 6.8125 -4.0625 L 6.765625 -4.0625 L 8.609375 0 L 7.203125 0 L 5.390625 -4.0625 L 2.46875 -4.0625 L 2.46875 0 Z M 2.46875 -5.1875 L 6.234375 -5.1875 L 6.984375 -5.9375 L 6.984375 -8.34375 L 6.234375 -9.109375 L 2.46875 -9.109375 Z M 2.46875 -5.1875 "/></g></g><g style="fill:#0f0e0c;fill-opacity:1;"><g transform="translate(84.533489, 22.3026)"><path style="stroke:none" d="M 2.40625 0 L 0.9375 -1.453125 L 0.9375 -8.78125 L 2.40625 -10.234375 L 7.234375 -10.234375 L 8.703125 -8.78125 L 8.703125 -1.453125 L 7.234375 0 Z M 2.96875 -1.125 L 6.671875 -1.125 L 7.4375 -1.890625 L 7.4375 -8.34375 L 6.671875 -9.109375 L 2.96875 -9.109375 L 2.203125 -8.34375 L 2.203125 -1.890625 Z M 2.96875 -1.125 "/></g></g><g style="fill:#0f0e0c;fill-opacity:1;"><g transform="translate(94.015792, 22.3026)"><path style="stroke:none" d="M 1.21875 0 L 1.21875 -1.171875 L 6.265625 -1.171875 L 7.015625 -1.9375 L 7.015625 -3.96875 L 6.265625 -4.734375 L 2.3125 -4.734375 L 0.859375 -6.1875 L 0.859375 -8.78125 L 2.3125 -10.234375 L 7.75 -10.234375 L 7.75 -9.078125 L 2.875 -9.078125 L 2.109375 -8.3125 L 2.125 -6.609375 L 2.875 -5.84375 L 6.828125 -5.84375 L 8.28125 -4.390625 L 8.28125 -1.453125 L 6.828125 0 Z M 1.21875 0 "/></g></g><g style="fill:#0f0e0c;fill-opacity:1;"><g transform="translate(103.151039, 22.3026)"><path style="stroke:none" d="M 3.828125 -1.65625 L 3.828125 -4.609375 L 0.875 -4.609375 L 0.875 -5.625 L 3.828125 -5.625 L 3.828125 -8.578125 L 4.84375 -8.578125 L 4.84375 -5.625 L 7.8125 -5.625 L 7.8125 -4.609375 L 4.84375 -4.609375 L 4.84375 -1.65625 Z M 3.828125 -1.65625 "/></g></g></g></svg>