<?xml version="1.0" encoding="UTF-8"?>
<svg id="Camada_1" xmlns="http://www.w3.org/2000/svg" viewBox="0 0 1080 1080" fill="#670508">
  <path d="M213.93,777.67v-238.99h88.08l28,216.46h6.15v-216.46h45.07v238.99h-88.08l-28-216.46h-6.15v216.46h-45.07Z"/>
  <path d="M215.61,510.04l-53-234.83h45.62l45.96,212.69h6.04l45.96-212.69h45.62l-53,234.83h-83.2Z"/>
  <path d="M502.93,510.04v-192.56h-62.4v-42.27h169.08v42.27h-62.4v192.56h-44.28Z"/>
  <path d="M834.06,298.71c-2.44-8.61-1.5-16.73,2.84-24.35,4.34-7.64,10.7-12.64,19.09-15.03,8.39-2.38,16.43-1.48,24.15,2.72,7.7,4.21,12.78,10.6,15.22,19.21,2.46,8.61,1.5,16.73-2.84,24.35-4.34,7.64-10.71,12.64-19.09,15.03-8.39,2.38-16.43,1.48-24.13-2.72-7.71-4.2-12.79-10.6-15.24-19.21Z"/>
  <path d="M933.62,423.9l-34.35,41.45-3.87-1.34-3.69-86.51c-.11-2.05-.34-4.09-.69-6.07-.33-2-.74-3.86-1.23-5.59-2.99-10.53-8.85-17.82-17.55-21.86-8.71-4.03-17.79-4.71-27.25-2.01-4.3,1.22-8.53,3.12-12.68,5.7-4.15,2.57-7.96,5.98-11.39,10.21l-37.79,44.93-5.07,5.47c-4.47-4.49-10.34-7.14-17.58-7.97v-6.05c10.5-4.47,18.39-10.9,23.65-19.28,5.24-8.39,7.88-17.39,7.88-27.01v-8.04c0-12.08-2.8-22.99-8.39-32.71-5.59-9.72-13.86-17.49-24.82-23.31-10.96-5.82-24.49-8.73-40.59-8.73h-89.9v234.83h44.28v-88.57h50.99c6.48,0,11.11,1.68,13.91,5.04,2.8,3.35,4.2,7.71,4.2,13.07v70.45h44.28v-50.36l26.11-32.29,34.79-41.99,3.87,1.35,3.68,86.49c.13,2.06.36,4.09.69,6.08.33,2,.75,3.86,1.23,5.58,3,10.54,8.86,17.83,17.57,21.86,8.69,4.03,17.78,4.71,27.25,2.02,4.3-1.23,8.57-3.19,12.79-5.92,4.23-2.71,7.98-6.05,11.28-10l8.4-9.98v-58.96ZM747.72,350.35c0,8.95-2.8,15.99-8.39,21.13-5.59,5.15-13.75,7.71-24.49,7.71h-42.26v-61.72h42.26c10.74,0,18.9,2.85,24.49,8.55,5.59,5.7,8.39,12.47,8.39,20.3v4.02Z"/>
  <path d="M402.61,777.67v-238.99h150.9v43.02h-105.84v54.63h101.74v43.02h-101.74v55.31h109.93v43.02h-155Z"/>
  <path d="M579.01,777.67v-238.99h93.55c16.39,0,29.99,3.36,40.8,10.07,10.81,6.72,18.89,15.36,24.24,25.95,5.34,10.58,8.02,21.68,8.02,33.29v8.19c0,11.84-2.68,23.22-8.02,34.14-5.35,10.93-13.43,19.86-24.24,26.8-10.81,6.95-24.41,10.41-40.8,10.41h-48.48v90.13h-45.07ZM624.07,644.51h44.04c10.01,0,17.92-2.73,23.73-8.19,5.8-5.46,8.71-12.51,8.71-21.17v-4.1c0-8.65-2.9-15.71-8.71-21.17-5.8-5.46-13.71-8.19-23.73-8.19h-44.04v62.82Z"/>
  <path d="M767.01,777.67v-238.99h93.55c16.39,0,29.98,3.36,40.8,10.07,10.81,6.72,18.89,15.36,24.24,25.95,5.35,10.58,8.02,21.68,8.02,33.29v8.19c0,11.84-2.68,23.22-8.02,34.14-5.35,10.93-13.43,19.86-24.24,26.8-10.81,6.95-24.41,10.41-40.8,10.41h-48.48v90.13h-45.07ZM812.08,644.51h44.04c10.01,0,17.92-2.73,23.73-8.19,5.8-5.46,8.71-12.51,8.71-21.17v-4.1c0-8.65-2.9-15.71-8.71-21.17-5.8-5.46-13.72-8.19-23.73-8.19h-44.04v62.82Z"/>
  <rect x="377.58" y="275.2" width="44.28" height="238.3"/>
</svg>